<?xml version="1.0" encoding="UTF-8"?>
<svg id="Layer_1" xmlns="http://www.w3.org/2000/svg" version="1.1" viewBox="0 0 744 416">
  <!-- Generator: Adobe Illustrator 29.7.1, SVG Export Plug-In . SVG Version: 2.1.1 Build 8)  -->
  <defs>
    <style>
      .st0 {
        fill: #333;
      }
    </style>
  </defs>
  <g id="Layer_11">
    <g>
      <path class="st0" d="M59.7,409.5v-33.1l-13.5,33.1h-2.6l-13.5-33.1v33.1h-6.3v-41.7h8.9l12.1,30,12.1-30h8.9v41.7h-6.2,0Z"/>
      <path class="st0" d="M92.7,409.5v-41.7h6.3v41.7h-6.3Z"/>
      <path class="st0" d="M124,388.6c0-12.8,9.5-21.6,21.4-21.6s13.3,3.9,16.6,8.8l-5.3,2.8c-2.2-3.5-6.3-6.1-11.3-6.1-8.4,0-14.9,6.6-14.9,16s6.5,16,14.9,16,9.1-2.6,11.3-6.1l5.3,2.8c-3.3,4.9-8.4,8.8-16.6,8.8-11.9,0-21.4-8.8-21.4-21.6h0v.2h0Z"/>
      <path class="st0" d="M215.1,409.5v-18.6h-23.1v18.6h-6.2v-41.7h6.2v17.5h23.1v-17.5h6.3v41.7h-6.3Z"/>
      <path class="st0" d="M277.9,409.5l-3.4-8.6h-20.5l-3.4,8.6h-6.9l16.6-41.7h7.8l16.6,41.7h-6.9,0ZM264.2,373.2l-8.4,22.1h16.8l-8.4-22.1Z"/>
      <path class="st0" d="M307.2,409.5v-41.7h28v5.5h-21.8v12.2h21.3v5.5h-21.3v13h21.8v5.5h-28Z"/>
      <path class="st0" d="M360.6,409.5v-41.7h6.2v36.2h19v5.5h-25.2Z"/>
      <path class="st0" d="M475.8,409.5l-8.7-32.2-8.6,32.2h-6.7l-11.9-41.7h7l8.6,33.5,9.1-33.5h5.1l9.1,33.5,8.6-33.5h7l-11.9,41.7h-6.7Z"/>
      <path class="st0" d="M544.1,409.5l-3.4-8.6h-20.5l-3.4,8.6h-6.9l16.6-41.7h7.8l16.6,41.7h-6.9.1ZM530.4,373.2l-8.4,22.1h16.8l-8.4-22.1h0Z"/>
      <path class="st0" d="M597.5,409.5l-10-16.1h-7.8v16.1h-6.2v-41.7h17.6c7.9,0,13.4,5.1,13.4,12.8s-5.1,11.5-10.4,12.2l10.7,16.7h-7.3ZM590.2,373.3h-10.5v14.6h10.5c4.5,0,7.8-2.9,7.8-7.3s-3.2-7.3-7.8-7.3h0Z"/>
      <path class="st0" d="M649.5,367.1c7.8,0,13,3.6,16.5,8.3l-5.1,2.9c-2.4-3.2-6.6-5.6-11.5-5.6-8.7,0-15.2,6.6-15.2,16s6.5,16.1,15.2,16.1,8.6-2.2,10.6-4.1v-7.5h-13.4v-5.5h19.6v15.3c-4,4.4-9.8,7.4-16.8,7.4-12,0-21.6-8.6-21.6-21.6s9.7-21.6,21.6-21.6h.1Z"/>
      <path class="st0" d="M715.8,409.5l-10-16.1h-7.8v16.1h-6.2v-41.7h17.6c7.9,0,13.4,5.1,13.4,12.8s-5.1,11.5-10.4,12.2l10.7,16.7h-7.3ZM708.6,373.3h-10.5v14.6h10.5c4.5,0,7.8-2.9,7.8-7.3s-3.2-7.3-7.8-7.3h0Z"/>
    </g>
    <g>
      <path class="st0" d="M537.4,75.3l-50,138.1-21.5-54.7-36.6-93c-14.6-37.5.4-55.7,21-58.1v-.8h-126.2v.8c15.4,2.8,24.5,23.8,35.2,50.1l98.1,238.2v.4h2l29.2-79.9,50.6-138.3-1.5-3.6-.3.9h0Z"/>
      <path class="st0" d="M677.3,6.7v.8c26.9,6.5,34.6,28.7,22,67.4,12.3-37.5,29.1-61,45.7-67.4v-.8h-67.7Z"/>
      <path class="st0" d="M600.6,65.7c-12.3-32.7-.8-54.9,20.6-58.1v-.8h-125.4v.8c15.4,2.8,24.9,24.6,35.2,50.1l8.2,20.4,15.2,37.6,72,180.2v.4h2l27.6-84.6-1.1-3-54.2-142.9h0Z"/>
      <path class="st0" d="M305.1,244.7l-14.2-197.2c-1.2-22.5,7.9-36.7,21-40v-.8h-74.4l-76,203.7,1.5,3.9,61-163.9h0l.7,8.1h0l16.3,186.3c2.8,32.2-7.9,47-26.5,50.6v.8h123.8v-.8c-20.2-4.5-31.3-22-33.2-50.6h0Z"/>
      <path class="st0" d="M80.3,6.7H0v.8c7,2,13.9,6.2,19.5,12.5,6.2,7,14.9,32.4,14.9,32.4l67.7,168.7,28.8,71.7h2.8l29.2-78.6-33.3-83.6L80.3,6.7Z"/>
    </g>
  </g>
</svg>