<?xml version="1.0" encoding="UTF-8"?>
<svg id="Layer_1" xmlns="http://www.w3.org/2000/svg" xmlns:xlink="http://www.w3.org/1999/xlink" viewBox="0 0 336.78 60.88">
  <defs>
    <style>
      .cls-1 {
        fill: url(#linear-gradient);
      }

      .cls-2 {
        fill: #0b6084;
      }

      .cls-3 {
        fill: #011830;
      }
    </style>
    <linearGradient id="linear-gradient" x1="2.67" y1="2.67" x2="28.17" y2="28.17" gradientUnits="userSpaceOnUse">
      <stop offset="0" stop-color="#5cdfc6"/>
      <stop offset="1" stop-color="#199ed2"/>
    </linearGradient>
  </defs>
  <path class="cls-1" d="M.18.18s-1.86,15.02,6.26,23.13c8.12,8.12,23.13,6.26,23.13,6.26,0,0,1.86-15.02-6.26-23.13C15.2-1.67.18.18.18.18Z"/>
  <g>
    <path class="cls-3" d="M79.9,11.05h16.25c4.38,0,7.65.89,9.82,2.66,2.17,1.77,3.25,4.59,3.25,8.47,0,2.54-.41,4.54-1.22,6-.81,1.46-2.09,2.67-3.84,3.63,4.08,1.58,6.13,4.9,6.13,9.94,0,8.09-4.54,12.13-13.63,12.13h-16.75V11.05ZM95.78,17.05h-8.94v12.25h9.19c4.08,0,6.13-2.1,6.13-6.31,0-3.96-2.13-5.94-6.38-5.94ZM96.15,35.18h-9.31v12.69h9.44c2.29,0,4.01-.48,5.16-1.44,1.15-.96,1.72-2.6,1.72-4.94s-.67-3.97-2-4.91c-1.33-.94-3-1.41-5-1.41Z"/>
    <path class="cls-3" d="M113.28,53.88v-31.26h6.75v3.75c3.54-2.29,7.08-3.77,10.63-4.44v6.81c-3.58.71-6.65,1.63-9.19,2.75l-1.38.56v21.82h-6.81Z"/>
    <path class="cls-3" d="M157.42,32.24v14.25c.04.92.28,1.59.72,2.03.44.44,1.11.72,2.03.84l-.19,5.19c-3.58,0-6.36-.77-8.32-2.31-3.33,1.54-6.69,2.31-10.06,2.31-6.21,0-9.31-3.31-9.31-9.94,0-3.17.84-5.46,2.53-6.88,1.69-1.42,4.28-2.27,7.78-2.56l8.06-.69v-2.25c0-1.67-.37-2.83-1.09-3.5-.73-.67-1.8-1-3.22-1-2.67,0-6,.17-10,.5l-2,.12-.25-4.81c4.54-1.08,8.72-1.63,12.53-1.63s6.56.82,8.25,2.47c1.69,1.65,2.53,4.26,2.53,7.85ZM143.41,40c-2.88.25-4.31,1.81-4.31,4.69s1.27,4.31,3.81,4.31c2.08,0,4.29-.33,6.63-1l1.12-.38v-8.31l-7.25.69Z"/>
    <path class="cls-3" d="M163.17,17.3v-7.19h6.81v7.19h-6.81ZM163.17,53.88v-31.26h6.81v31.26h-6.81Z"/>
    <path class="cls-3" d="M180.98,53.88h-6.81v-31.26h6.75v1.94c3.04-1.75,5.92-2.63,8.63-2.63,4.17,0,7.01,1.18,8.53,3.53,1.52,2.35,2.28,6.24,2.28,11.66v16.75h-6.75v-16.57c0-3.38-.37-5.77-1.09-7.19-.73-1.42-2.22-2.13-4.47-2.13-2.13,0-4.17.42-6.13,1.25l-.94.38v24.26Z"/>
    <path class="cls-3" d="M221.05,28.43h-8.63v13.75c0,2.54.19,4.23.56,5.06.38.83,1.33,1.25,2.88,1.25l5.13-.19.31,5.44c-2.79.54-4.92.81-6.38.81-3.54,0-5.97-.81-7.28-2.44s-1.97-4.69-1.97-9.19v-14.5h-4v-5.81h4v-9.06h6.75v9.06h8.63v5.81Z"/>
    <path class="cls-3" d="M246.06,48.25l1.75-.19.12,5.06c-4.75.96-8.96,1.44-12.63,1.44-4.63,0-7.95-1.27-9.97-3.81-2.02-2.54-3.03-6.6-3.03-12.19,0-11.09,4.52-16.63,13.57-16.63s13.13,4.77,13.13,14.32l-.44,4.88h-19.38c.04,2.58.6,4.48,1.69,5.69,1.08,1.21,3.1,1.81,6.06,1.81s6-.12,9.13-.38ZM242.31,35.87c0-3.08-.49-5.24-1.47-6.47-.98-1.23-2.64-1.84-4.97-1.84s-4.03.65-5.09,1.94c-1.06,1.29-1.62,3.42-1.66,6.38h13.19Z"/>
    <path class="cls-3" d="M275.88,32.24v14.25c.04.92.28,1.59.72,2.03.44.44,1.11.72,2.03.84l-.19,5.19c-3.58,0-6.36-.77-8.32-2.31-3.33,1.54-6.69,2.31-10.06,2.31-6.21,0-9.31-3.31-9.31-9.94,0-3.17.84-5.46,2.53-6.88,1.69-1.42,4.28-2.27,7.78-2.56l8.06-.69v-2.25c0-1.67-.37-2.83-1.09-3.5-.73-.67-1.8-1-3.22-1-2.67,0-6,.17-10,.5l-2,.12-.25-4.81c4.54-1.08,8.72-1.63,12.53-1.63s6.56.82,8.25,2.47c1.69,1.65,2.53,4.26,2.53,7.85ZM261.88,40c-2.88.25-4.31,1.81-4.31,4.69s1.27,4.31,3.81,4.31c2.08,0,4.29-.33,6.63-1l1.12-.38v-8.31l-7.25.69Z"/>
    <path class="cls-3" d="M288.44,53.88h-6.81v-31.26h6.75v1.94c2.96-1.75,5.67-2.63,8.13-2.63,3.63,0,6.27,1.02,7.94,3.06,3.79-2.04,7.56-3.06,11.32-3.06s6.4,1.16,7.94,3.47c1.54,2.31,2.31,6.22,2.31,11.72v16.75h-6.75v-16.57c0-3.38-.34-5.77-1.03-7.19-.69-1.42-2.12-2.13-4.28-2.13-1.88,0-3.9.42-6.06,1.25l-1.06.44c.33.83.5,3.5.5,8v16.19h-6.75v-16.07c0-3.71-.33-6.27-1-7.69-.67-1.42-2.13-2.13-4.38-2.13-2.08,0-4.02.42-5.81,1.25l-.94.38v24.26Z"/>
  </g>
  <g>
    <path class="cls-3" d="M327.35,12.71v-.76h3.82v.76h-1.47v4.48h-.86v-4.48h-1.49Z"/>
    <path class="cls-3" d="M331.49,17.18v-5.23h1.47l1.17,4.09,1.17-4.09h1.48v5.23h-.86v-4.29h-.11l-1.24,4.08h-.89l-1.24-4.08h-.12v4.29h-.85Z"/>
  </g>
  <path class="cls-2" d="M54.43,37.56c-3.93-3.93-9.47-5.52-14.15-6.12,2.51.66,5.06,1.82,7.05,3.8,5.85,5.85,4.52,16.68,4.52,16.68,0,0-10.83,1.34-16.68-4.52-1.81-1.81-2.93-4.1-3.62-6.4.67,4.51,2.29,9.69,6.02,13.41,8.12,8.12,23.13,6.26,23.13,6.26,0,0,1.86-15.02-6.26-23.13Z"/>
  <path class="cls-2" d="M25.33,47.42c-5.85,5.85-16.68,4.52-16.68,4.52,0,0-1.34-10.83,4.52-16.68,1.88-1.88,4.28-3.02,6.67-3.7-4.51.67-9.67,2.29-13.39,6.01C-1.67,45.68.18,60.69.18,60.69c0,0,15.02,1.86,23.13-6.26,4.69-4.69,6.05-11.67,6.36-16.74-.48,3.27-1.65,7.03-4.35,9.73Z"/>
  <path class="cls-2" d="M60.69.18s-15.02-1.86-23.13,6.26c-3.61,3.61-5.25,8.58-5.95,12.99.69-2.23,1.8-4.44,3.56-6.19,5.85-5.85,16.68-4.52,16.68-4.52,0,0,1.34,10.83-4.52,16.68-2.48,2.48-5.84,3.66-8.9,4.21,4.99-.4,11.54-1.85,16-6.31C62.55,15.2,60.69.18,60.69.18Z"/>
</svg>