<?xml version="1.0" encoding="UTF-8"?>
<svg id="Layer_1" xmlns="http://www.w3.org/2000/svg" viewBox="0 0 589.23 326.8" preserveAspectRatio="xMinYMin">
  <polygon points="367.96 72.13 301.89 249.28 235.82 72.13 181.91 72.13 274.94 321.55 328.85 321.55 421.87 72.13 367.96 72.13"/>
  <path d="M90.6,326.59c-38.91,0-71.55-20.4-90.6-47.57l39.37-28.52c15.28,18.78,32.91,29.1,49.78,29.1,20.2,0,37.19-10.29,37.19-27.82s-20.8-26.72-32.63-31.77c-10.18-4.35-15.22-6.46-26.68-11.38-35.5-15.21-53.62-39.01-53.62-70.3,0-45.36,37.25-70.85,77.05-70.85,30.6,0,59.16,14.39,74.9,37.66l-37.37,27.11c-11.25-12.02-23-17.87-35.91-17.87-15.17,0-28.69,8.53-28.69,24.18,0,11.71,9.73,21.51,29.74,29.97,4,1.69,24.85,10.96,29.9,13.28,36.15,16.57,53.72,39.21,53.72,69.22,0,45.72-37.8,75.56-86.16,75.56Z"/>
  <path d="M531.48,326.8c-29.86,0-64.56-16.07-79.27-56.76-5.01-13.86-4.84-24.54-4.87-35.83V0h50.29v72.14h77.23l-18.32,49.13h-58.91v113.04c.04,7.83.4,17.33,3.87,24.56,5.75,11.98,17.5,19.91,29.98,19.91,8.89,0,18.62-3.7,26.31-9.96l31.44,35.93c-15.56,14.03-36.52,22.05-57.75,22.05Z"/>
</svg>