<?xml version="1.0" encoding="UTF-8"?>
<svg id="Layer_1" xmlns="http://www.w3.org/2000/svg" viewBox="0 0 583.09 166.11">
  <defs>
    <style>
      .cls-1 {
        fill: #fff;
      }

      .cls-2 {
        fill: #d8005c;
      }

      .cls-3 {
        fill: #0b0a5a;
      }
    </style>
  </defs>
  <path class="cls-1" d="M362.88,155.91v-.64c0,.21-.02.41-.02.62h.02Z"/>
  <path class="cls-1" d="M367.88,159.91v-.64c0,.21-.02.41-.02.62h.02Z"/>
  <path class="cls-1" d="M367.88,159.91v-.64c0,.21-.02.41-.02.62h.02Z"/>
  <g>
    <path class="cls-3" d="M136.82,75.43h37.08c26.31,0,41.3,15.66,41.3,43.2v.12c0,28.94-14.75,44.97-41.3,44.97h-37.08v-88.29ZM169.87,145.67c14.56,0,22.46-9.06,22.46-26.49v-.12c0-16.4-8.32-25.58-22.46-25.58h-10.59v52.19h10.59Z"/>
    <path class="cls-3" d="M221.83,75.43h60.51v18.05h-38.06v17.62h35.79v16.52h-35.79v18.05h38.06v18.05h-60.51v-88.29Z"/>
    <path class="cls-3" d="M285.18,139.67l-.06-1.1h21.42l.06.55c.61,5.45,6.67,9.36,15.72,9.36s14.5-3.98,14.5-9.61v-.06c0-4.96-3.92-7.28-14.26-9.3l-9.12-1.77c-18.66-3.61-26.74-12.42-26.74-26.19v-.06c.06-17.32,14.75-28.45,35.06-28.45,22.15,0,34.2,11.2,35.55,26.8l.06.73h-20.8l-.12-.73c-.92-5.51-6.42-9.18-14.56-9.18s-12.85,3.61-12.85,8.87v.06c0,5.02,4.04,7.77,13.58,9.67l9.12,1.77c18.79,3.67,27.35,11.2,27.35,25.45v.06c0,18.05-13.89,29.55-37.14,29.55-22.03,0-35.86-10.04-36.77-26.43Z"/>
    <path class="cls-3" d="M366.02,75.43h22.46v88.29h-22.46v-88.29Z"/>
    <path class="cls-3" d="M395.1,119.54v-.12c0-28.64,16.4-46.38,42.89-46.38,21.54,0,37.51,12.61,39.77,30.59l.06.61h-22.15l-.12-.55c-1.9-7.4-8.69-12.05-17.56-12.05-12.54,0-20.07,10.4-20.07,27.53v.12c0,17.44,8.32,28.21,21.17,28.21,10.22,0,17.25-6,17.87-15.05l.06-1.47h-16.15v-15.42h37.81v11.38c0,24.29-15.11,39.16-40.08,39.16-27.17,0-43.5-17.56-43.5-46.56Z"/>
    <path class="cls-3" d="M485.43,75.43h17.93l36.83,49.68h1.1v-49.68h21.29v88.29h-17.81l-36.96-50.17h-1.1v50.17h-21.29v-88.29Z"/>
  </g>
  <g>
    <path class="cls-2" d="M99.37,103.2c0-6.68-4.08-11-10.4-11-9.78,0-18.68,9.83-18.68,20.63,0,6.81,4.13,11.21,10.53,11.21,10.61,0,18.55-11,18.55-20.84ZM82.71,120.95c-3.42,0-5.63-3.5-5.63-8.93,0-7.92,4.14-16.74,10.07-16.74,3.13,0,5.16,3.5,5.16,8.93,0,6.99-3.65,16.74-9.6,16.74Z"/>
    <path class="cls-2" d="M122.03,76.71c-5.84,0-10.38,4.14-12.8,11.66l-1.28,3.9c-.69,2.02-2,2.29-4.8,2.42l-.35.02-.77,2.53h4.6l-6.02,22.26-.47,1.7c-2.09,7.6-3.46,12.62-6.79,12.62-.13,0-1.25-.02-1.25-.71,0-.35.15-.6.37-.93.29-.45.64-1.02.64-1.96,0-1.46-1.23-2.52-2.92-2.52-1.85,0-3.73,1.4-3.73,4.07,0,2.41,1.97,5.01,6.29,5.01,5.86,0,10.4-4.14,12.8-11.66l1.29-3.93,6.43-23.94h5.38l1.09-3.9h-5.39l.29-1.06c2.09-7.6,3.46-12.62,6.79-12.62.59,0,1.18.24,1.18.71,0,.37-.16.64-.36.99-.26.45-.59,1.02-.59,1.91,0,1.46,1.2,2.52,2.86,2.52,1.83,0,3.8-1.27,3.8-4.07,0-2.49-2.16-5.01-6.29-5.01Z"/>
  </g>
  <g>
    <path class="cls-2" d="M18.33,41.6v13.96c0,7.82,2.51,10.33,7.91,10.89v.56H0v-.56c4.28-.28,6.79-3.54,6.79-8.84V10.42C6.79,5.12,4.28,1.86,0,1.58v-.56h27.55c16.01,0,24.29,6.23,24.29,19.26s-12.19,21.31-29.69,21.31h-3.82ZM25.87,3.26c-5.03,0-7.54,2.42-7.54,6.7v29.13h3.82c11.82,0,17.5-5.77,17.5-17.68,0-10.33-5.03-18.15-13.77-18.15Z"/>
    <path class="cls-2" d="M58.25,64.49l-2.05-20.94h.09c3.44,7.45,6.79,12.75,10.24,16.01,4.19,4,8.93,5.96,14.52,5.96,8.47,0,13.59-4.37,13.59-11.63s-4.75-11.35-18.43-16.19c-13.77-4.93-18.99-10.24-18.99-19.26,0-10.98,9.21-18.43,22.8-18.43,5.77,0,12.28,1.02,16.57,2.51l2.05,18.89h-.09c-3.07-6.98-6.05-11.63-9.4-14.7-3.35-3.07-7.07-4.47-12.1-4.47-7.35,0-12.56,4.28-12.56,10.42s4,9.68,17.31,14.7c14.98,5.58,20.1,10.7,20.1,20.29,0,11.82-9.59,20.1-23.08,20.1-8.38,0-15.26-1.12-20.57-3.26Z"/>
    <path class="cls-2" d="M143.96,1.02h17.4v.56c-3.82,1.21-8.75,6.14-11.82,11.73l-13.12,23.73v20.57c0,5.12,2.51,8.56,6.89,8.84v.56h-25.22v-.56c4.37-.28,6.79-3.72,6.79-8.84v-18.61l-16.1-28.57c-3.07-5.4-4.93-7.91-8.28-8.84v-.56h25.03v.56c-3.26,1.12-4.47,3.07-4.47,5.3s1.02,4.47,2.33,6.79l11.63,20.85,11.54-21.12c1.12-2.05,1.86-4.28,1.86-6.14,0-2.61-1.3-4.75-4.47-5.68v-.56Z"/>
    <path class="cls-2" d="M153.82,34.81C153.82,15.45,167.31.09,186.76.09c7.17,0,13.4,1.21,18.52,3.26l2.05,19.92h-.09c-3.26-7.07-7.17-12.19-10.8-15.36-4.47-3.82-8.75-5.3-13.59-5.3-11.54,0-20.57,9.12-20.57,24.75,0,18.8,12,32.2,27.73,32.2,8.38,0,17.03-3.63,20.19-13.31l.37.09c-3.35,15.26-14.52,21.4-26.52,21.4-16.47,0-30.25-10.61-30.25-32.94Z"/>
    <path class="cls-2" d="M268.66,57.61c0,5.12,2.51,8.56,6.89,8.84v.56h-25.22v-.56c4.37-.28,6.79-3.72,6.79-8.84v-24.01h-27.36v24.01c0,5.12,2.51,8.56,6.89,8.84v.56h-25.22v-.56c4.37-.28,6.79-3.72,6.79-8.84V10.42c0-5.12-2.51-8.56-6.89-8.84v-.56h25.22v.56c-4.37.28-6.79,3.72-6.79,8.84v20.85h27.36V10.42c0-5.12-2.51-8.56-6.89-8.84v-.56h25.22v.56c-4.37.28-6.79,3.72-6.79,8.84v47.18Z"/>
    <path class="cls-2" d="M392.97,43.09l-3.72,23.92h-46.25v-.56c4.28-.28,6.79-3.54,6.79-8.84V10.42c0-5.21-2.61-8.56-6.89-8.84v-.56h25.22v.56c-4.28.28-6.79,3.54-6.79,8.84v47.83c0,4.93,2.14,6.51,8.19,6.51h1.86c3.63,0,10.05-2.79,13.59-6.98,2.88-3.44,5.58-7.26,7.54-14.7h.46Z"/>
    <path class="cls-2" d="M396.23,34.15c0-18.8,14.8-34.15,32.94-34.15s32.94,14.42,32.94,33.6-14.8,34.15-32.94,34.15-32.94-14.33-32.94-33.6ZM449.92,36.67c0-20.01-9.12-34.53-21.68-34.53-11.26,0-18.99,11.82-18.99,29.13,0,20.01,8.56,34.34,20.85,34.34s19.82-11.54,19.82-28.94Z"/>
    <path class="cls-2" d="M505.66,33.5h24.57v.56c-4.56.28-6.98,3.82-6.98,8.84v24.85h-.28c-.93-2.79-3.44-4.19-6.05-4.19-1.12,0-1.86.09-3.07.56-4.47,1.95-10.14,3.63-17.87,3.63-15.36,0-29.97-10.14-29.97-32.2C466.02,15.26,478.96.09,499.8.09c6.98,0,14.52,1.21,19.73,3.26l2.14,19.92h-.09c-3.63-7.07-7.07-12.19-11.08-15.45-4.09-3.35-8.93-5.21-14.98-5.21-11.35,0-20.38,8.84-20.38,25.03,0,21.13,15.26,36.11,30.25,36.11,3.07,0,6.05-.37,7.35-.84v-20.01c0-5.03-2.51-8.56-7.07-8.84v-.56Z"/>
    <path class="cls-2" d="M565.68,1.02h17.4v.56c-3.82,1.21-8.75,6.14-11.82,11.73l-13.12,23.73v20.57c0,5.12,2.51,8.56,6.89,8.84v.56h-25.22v-.56c4.37-.28,6.79-3.72,6.79-8.84v-18.61l-16.1-28.57c-3.07-5.4-4.93-7.91-8.28-8.84v-.56h25.03v.56c-3.26,1.12-4.47,3.07-4.47,5.3s1.02,4.47,2.33,6.79l11.63,20.85,11.54-21.12c1.12-2.05,1.86-4.28,1.86-6.14,0-2.61-1.3-4.75-4.47-5.68v-.56Z"/>
    <path class="cls-2" d="M144.06,23.4l.33-.12s-.12.04-.33.12Z"/>
    <path class="cls-2" d="M291.27,66.61c-.93-4.04-1.43-8.52-1.43-13.34,0-17.31,7.72-29.13,18.99-29.13,12.56,0,21.68,14.52,21.68,34.53,0,2.81-.21,5.46-.6,7.94h11c1.15-3.46,1.79-7.17,1.79-11.01,0-19.17-14.33-33.6-32.94-33.6s-32.94,15.36-32.94,34.15c0,3.69.53,7.19,1.51,10.46h12.94Z"/>
    <path class="cls-2" d="M327.93,1.52c-3.22,8.52-9.34,13.61-17.31,13.61-7.37,0-13.4-5.16-17.04-13.61h-12.09c5.7,9.62,16.04,15.75,28.2,15.75s21.82-6.31,27.69-15.75h-9.45Z"/>
  </g>
</svg>