<?xml version="1.0" encoding="UTF-8"?>
<svg xmlns="http://www.w3.org/2000/svg" version="1.1" viewBox="0 0 192.87 81.64">
  <defs>
    <style>
      .cls-1 {
        fill: #58c4cb;
      }

      .cls-2 {
        fill: #f4834c;
      }
    </style>
  </defs>
  <!-- Generator: Adobe Illustrator 28.6.0, SVG Export Plug-In . SVG Version: 1.2.0 Build 709)  -->
  <g>
    <g id="Layer_1">
      <path class="cls-1" d="M135.7,24.15c2.21,0,4.3-.02,6.4,0,1.62.02,2.19.58,2.25,2.17.03.7.01,1.41-.1,2.09-.59,3.71-1.8,4.73-5.54,4.73-1.26,0-2.52.06-3.77-.02-.87-.06-1.12.35-1.26,1.09-1.31,6.93-2.65,13.86-3.95,20.8-.5,2.67-1.33,3.48-4.07,3.97-1.49.26-2.96.28-4.43-.03-2.19-.47-2.77-1.24-2.37-3.41.57-3.11,1.2-6.2,1.81-9.3.78-4.01,1.54-8.02,2.33-12.03.15-.75.02-1.14-.86-1.07-.79.06-1.58.03-2.38,0-1.5-.05-2.22-.71-2.29-2.23-.08-1.8.37-3.51,1.17-5.11.66-1.29,1.81-1.71,3.26-1.69,3.04.05,3.1,0,3.64-3.01,1.9-10.55,11.44-13.59,19.59-11.35.66.18,1.3.5,1.92.82,2.96,1.58,3.41,3.53,1.39,6.2-.82,1.08-1.79,2-3.12,2.49-1.21.45-2.3.4-3.41-.37-2.45-1.69-4.97-.7-5.65,2.19-.22.94-.34,1.91-.54,3.05Z"/>
      <path class="cls-1" d="M111.05,23.62c.09,0,.19,0,.28,0,4.1.05,4.84.84,4.1,4.77-1.71,9.08-3.53,18.14-5.24,27.21-.34,1.8-1.33,2.81-3.02,3.22-1.92.47-3.87.53-5.81.05-1.69-.42-2.26-1.32-1.93-3.07,1.81-9.53,3.62-19.06,5.46-28.59.43-2.23,1.7-3.28,4.19-3.53.65-.06,1.3,0,1.96,0,0-.02,0-.04,0-.06Z"/>
      <path class="cls-1" d="M113.71,10.13c1.7.01,3.35.31,4.12,2.03.93,2.1.23,4.16-.92,5.92-1.57,2.4-5.46,3.21-8.02,1.9-1.12-.57-1.81-1.47-1.83-2.74-.06-4.33,2.15-7.12,6.66-7.1Z"/>
      <path class="cls-1" d="M94.46,23.76c-2.48-.7-4.99-.61-7.41.25-1.27.45-1.24-.09-1.05-.99.7-3.5,1.41-7.01,2.1-10.51.34-1.75-.23-2.63-1.93-3.13-.91-.27-3.8-.29-4.3-.25-2.81.25-4.16,1.26-4.59,3.44-2.23,11.44-4.48,22.87-6.67,34.31-1.19,6.21,1.91,10.86,8.07,12.21,2.06.45,4.14.43,6.24.12,6.43-.93,11.79-5.57,13.21-11.81.99-4.34,1.79-8.73,2.5-13.13.81-5.06-1.71-9.25-6.17-10.51ZM89.77,35.03c-.7,4.16-1.5,8.3-2.36,12.44-.29,1.38-1.17,2.39-2.63,2.8-2.16.61-3.49-.41-3.38-3.36.67-3.44,1.4-7.6,2.33-11.71.42-1.88,1.82-2.84,3.49-2.87,1.72-.03,2.84,1.03,2.56,2.7Z"/>
      <path class="cls-1" d="M62.79,23.98c-2.08-.66-4.21-.7-6.36-.59-6.21.32-12.06,4.61-13.97,10.53-1.53,4.73-2.31,9.67-2.93,14.59-.55,4.41,1.72,8,5.54,9.72,6.35,2.86,15.23.54,19.4-5.05,1.62-2.17,2.58-4.58,3.06-7.24.74-4.16,1.82-8.25,2.15-11.62.05-5.57-2.41-8.93-6.89-10.34ZM58.76,35.93c-.68,3.46-1.46,7.65-2.35,11.81-.23,1.06-1,1.89-2.04,2.34-1.03.44-2.08.57-3.04-.12-.95-.68-1.09-1.71-.9-2.76.69-3.78,1.41-7.56,2.17-11.33.3-1.52,1.02-2.78,2.61-3.32,2.22-.76,3.71.33,3.55,3.39Z"/>
      <path class="cls-1" d="M37.74,23.75c-1.6-.24-3.24-.23-4.86.09-1.96.38-3.07,1.46-3.44,3.48-1.1,6.08-2.3,12.14-3.47,18.2l-.21,1.08c-.17.82-.4,1.5-.91,2.21-.9,1.25-2.59,1.81-3.95,1.32-1.56-.57-1.46-1.85-1.36-3.14.02-.28.04-.56.09-.83,1.25-6.47,2.51-12.95,3.76-19.42.3-1.52-.2-2.46-1.68-2.89-1.87-.54-3.77-.45-5.67-.13-2.08.36-3.25,1.49-3.56,3.67-.37,2.57-.99,5.1-1.48,7.66-.87,4.56-2.06,9.08-2.49,13.7-.47,5.05,1.65,8.94,6.75,10.24,2.74.7,5.56.25,8.25-.99,0,0-.7,3.75-1.47,4.7-1.88,2.33-5.03,2.58-7.91.63-1.75-1.19-2.84-1.18-4.59,0-.94.64-1.67,1.47-2.31,2.4-1.79,2.62-1.48,4.28,1.23,5.86,3.48,2.02,7.27,2.31,11.2,1.89,6.84-.74,12.35-5.38,13.84-12.11,1.46-6.62,2.64-13.3,3.94-19.95.9-4.6,1.81-9.2,2.73-13.8.49-2.48-.09-3.52-2.45-3.88Z"/>
      <path class="cls-1" d="M172.4,23.75c-1.6-.24-3.24-.23-4.86.09-1.96.38-3.07,1.46-3.44,3.48-1.1,6.08-2.3,12.14-3.47,18.2l-.21,1.08c-.17.82-.4,1.5-.91,2.21-.9,1.25-2.59,1.81-3.95,1.32-1.56-.57-1.46-1.85-1.36-3.14.02-.28.04-.56.09-.83,1.25-6.47,2.51-12.95,3.76-19.42.3-1.52-.2-2.46-1.68-2.89-1.87-.54-3.77-.45-5.67-.13-2.08.36-3.25,1.49-3.56,3.67-.37,2.57-.99,5.1-1.48,7.66-.87,4.56-2.06,9.08-2.49,13.7-.47,5.05,1.65,8.94,6.75,10.24,2.74.7,5.56.25,8.25-.99,0,0-.7,3.75-1.47,4.7-1.88,2.33-5.03,2.58-7.91.63-1.75-1.19-2.84-1.18-4.59,0-.94.64-1.67,1.47-2.31,2.4-1.79,2.62-1.48,4.28,1.23,5.86,3.48,2.02,7.27,2.31,11.2,1.89,6.84-.74,12.35-5.38,13.84-12.11,1.46-6.62,2.64-13.3,3.94-19.95.9-4.6,1.81-9.2,2.73-13.8.49-2.48-.09-3.52-2.45-3.88Z"/>
      <circle class="cls-2" cx="181.15" cy="53.25" r="6.35"/>
    </g>
  </g>
</svg>