<?xml version="1.0" encoding="UTF-8"?>
<svg id="Layer_1" xmlns="http://www.w3.org/2000/svg" viewBox="0 0 679.75 127.26">
  <defs>
    <style>
      .cls-1 {
        fill: #231f20;
      }

      .cls-2 {
        fill: #b91319;
      }
    </style>
  </defs>
  <path class="cls-2" d="M51.03,92.25c0,9.33-2.74,16.05-8.22,20.13-3.78,2.78-8.64,4.16-14.58,4.16H0V31.04h28.23c5.94,0,10.8,1.39,14.58,4.17,5.48,4.09,8.22,10.84,8.22,20.25,0,8.18-2.04,14.31-6.13,18.4,4.09,4.09,6.13,10.22,6.13,18.4ZM38.99,55.45c0-4.36-.66-7.43-1.97-9.23-1.62-2.18-4.55-3.27-8.79-3.27H12.03v24.99h16.2c4.24,0,7.17-1.09,8.79-3.27,1.31-1.79,1.97-4.87,1.97-9.23ZM38.99,92.3c0-4.34-.66-7.4-1.97-9.18-1.62-2.17-4.55-3.25-8.79-3.25H12.03v24.76h16.2c4.24,0,7.17-1.04,8.79-3.14,1.31-1.78,1.97-4.84,1.97-9.18Z"/>
  <path class="cls-2" d="M112.24,116.55h-28.58c-19.13,0-28.7-10.2-28.7-30.6s9.56-30.72,28.7-30.72,28.58,10.23,28.58,30.68v6h-44.89c1.23,8.49,6.67,12.73,16.31,12.73h28.58v11.92ZM99.85,79.98c-1.23-8.56-6.63-12.84-16.2-12.84s-15.08,4.28-16.31,12.84h32.51Z"/>
  <path class="cls-2" d="M148.07,116.66c-20.44,0-30.66-7.44-30.66-22.33V31.04h12.03v24.18h18.63v11.92h-18.63v27.24c0,3.26,1.04,5.67,3.12,7.22,2.85,2.1,8.02,3.14,15.5,3.14v11.92Z"/>
  <path class="cls-1" d="M355.53,85.88c0,20.44-9.53,30.66-28.58,30.66s-28.7-10.22-28.7-30.66v-24.07c0-20.52,9.56-30.78,28.7-30.78s28.58,10.26,28.58,30.78h-12.03c0-6.29-1.04-10.83-3.12-13.62-2.55-3.49-7.02-5.24-13.42-5.24s-10.92,1.74-13.54,5.23c-2.08,2.79-3.12,7.32-3.12,13.59v24.16c0,6.19,1.04,10.72,3.12,13.59,2.62,3.41,7.13,5.11,13.54,5.11s10.88-1.71,13.42-5.12c2.08-2.79,3.12-7.33,3.12-13.62h12.03Z"/>
  <path class="cls-1" d="M393.02,67.14c-7.48,0-12.65,1.04-15.5,3.12-2.08,1.54-3.12,3.93-3.12,7.17v39.11h-12.03v-39.04c0-14.86,10.22-22.29,30.66-22.29v11.92Z"/>
  <path class="cls-1" d="M452.23,116.55h-28.58c-19.13,0-28.7-10.2-28.7-30.6s9.56-30.72,28.7-30.72,28.58,10.23,28.58,30.68v6h-44.9c1.23,8.49,6.67,12.73,16.32,12.73h28.58v11.92ZM439.85,79.98c-1.24-8.56-6.64-12.84-16.2-12.84s-15.08,4.28-16.32,12.84h32.51Z"/>
  <path class="cls-1" d="M507.58,98.15c0,12.26-8.29,18.4-24.88,18.4-9.49,0-16.32-2.2-20.48-6.6-2.85-3.08-4.28-7.02-4.28-11.8s1.43-8.72,4.28-11.8c4.17-4.4,10.99-6.59,20.48-6.59,5.63,0,9.37-.77,11.22-2.31,1.08-.85,1.62-2.16,1.62-3.93s-.54-3.2-1.62-4.05c-1.85-1.54-5.59-2.31-11.22-2.31s-9.26.77-11.11,2.31c-1.08.85-1.62,2.2-1.62,4.05h-12.03c0-4.75,1.43-8.66,4.28-11.73,4.17-4.37,10.99-6.55,20.48-6.55,16.58,0,24.88,6.09,24.88,18.28v24.65ZM495.55,98.21v-8.16c-3.55,1.23-7.83,1.85-12.84,1.85-5.55,0-9.26.74-11.11,2.22-1.08.86-1.62,2.22-1.62,4.09s.54,3.23,1.62,4.09c1.85,1.56,5.55,2.34,11.11,2.34s9.37-.78,11.22-2.33c1.08-.86,1.62-2.22,1.62-4.08Z"/>
  <path class="cls-1" d="M544.95,116.66c-20.44,0-30.66-7.44-30.66-22.33V31.04h12.03v24.18h18.63v11.92h-18.63v27.24c0,3.26,1.04,5.67,3.12,7.22,2.85,2.1,8.02,3.14,15.5,3.14v11.92Z"/>
  <rect class="cls-1" x="549.69" y="35.04" width="12.03" height="11.92"/>
  <rect class="cls-1" x="549.69" y="55.22" width="12.03" height="61.33"/>
  <path class="cls-1" d="M625.14,55.22l-24.53,62.13h-11.22l-24.53-62.13h12.96l17.12,43.51,17.24-43.51h12.96Z"/>
  <path class="cls-1" d="M679.75,116.55h-28.58c-19.13,0-28.7-10.2-28.7-30.6s9.56-30.72,28.7-30.72,28.58,10.23,28.58,30.68v6h-44.9c1.23,8.49,6.67,12.73,16.32,12.73h28.58v11.92ZM667.37,79.98c-1.24-8.56-6.64-12.84-16.2-12.84s-15.08,4.28-16.32,12.84h32.51Z"/>
  <g>
    <polygon class="cls-2" points="237.07 107.37 263.74 127.26 253.19 95.37 237.07 107.37"/>
    <path class="cls-2" d="M289.78,48.86h-51.43S222.97,0,222.97,0l-15.39,48.85h-51.39s42.21,29.51,42.21,29.51l-16.18,48.9,107.56-78.4ZM210.37,61.1c.33.96.81,2.46-.16,3.58l.03.06.03-.03c.28-.3.64-.54.99-.71,1.34-.67,2.88-.48,4.24-.23-.46,1.32-1.15,2.66-2.37,3.46-.49.31-1.13.58-1.7.56l-.39-.09.64,2.42c3.25,1.17,6.23.49,9.73-1.14l-.06-3.97-.18.13c-.71.33-1.61.01-2.28-.43-1.23-.77-1.95-2.1-2.42-3.4,1.36-.28,2.89-.48,4.24.15l.38.22-.36-.41c-.4-.64-.42-1.34-.38-2.06.07-1.81,1.4-3.7,2.5-5.02,1.13,1.3,2.48,3.18,2.58,4.99.05.72.05,1.42-.35,2.07l-.35.42.37-.23c1.34-.67,2.88-.48,4.23-.21-.44,1.31-1.13,2.65-2.35,3.44-.5.33-1.13.6-1.71.57-.2,0-.38-.03-.55-.11l-.19-.13v3.96c3.52,1.59,6.52,2.22,9.74.99l.61-2.43-.38.1c-.57.03-1.23-.23-1.71-.55-1.23-.78-1.96-2.11-2.42-3.41,1.36-.28,2.89-.47,4.24.15.37.18.73.41,1,.71l.04.03v-.06c-.96-1.11-.5-2.62-.19-3.59.84-1.88,2.54-2.51,4.85-3.83l-3.74,15.39h-.11c-.83-.01-1.49.66-1.48,1.49,0,.42.17.79.45,1.06l.46.31-.66,2.71-11.5.09-12.84.1-.72-2.78.36-.25c.28-.28.44-.64.43-1.06,0-.82-.68-1.5-1.52-1.49l-3.96-15.33c2.33,1.29,4.03,1.89,4.9,3.77Z"/>
  </g>
</svg>