<?xml version="1.0" encoding="utf-8"?>
<!-- Generator: Adobe Illustrator 23.0.2, SVG Export Plug-In . SVG Version: 6.00 Build 0)  -->
<svg version="1.1" id="Layer_1" xmlns:serif="http://www.serif.com/"
	 xmlns="http://www.w3.org/2000/svg" xmlns:xlink="http://www.w3.org/1999/xlink" x="0px" y="0px" viewBox="0 0 1920 605.1"
	 style="enable-background:new 0 0 1920 605.1;" xml:space="preserve">
<style type="text/css">
	.st0{fill:#FDBB35;}
	.st1{fill:#EF364D;}
	.st2{fill:#4E2055;}
</style>
<g>
	<path class="st0" d="M1768,365l-86.5-108.7c-5.5-6.9-4.3-16.8,2.5-22.3c6.9-5.5,16.8-4.3,22.3,2.5L1768,314l75.1-94.4
		c13.4-17,20.6-37.5,20.6-59.2c0-52.7-42.9-95.6-95.6-95.6c-7.6,0-15.2,0.9-22.5,2.7c-8.5,2-17.1-3.2-19.1-11.7
		c-2.1-8.5,3.2-17.1,11.7-19.1c9.8-2.4,19.9-3.6,30-3.6c70.2,0,127.3,57.1,127.3,127.3c0,28.9-9.5,56.2-27.4,78.9L1768,365z"/>
</g>
<g>
	<path class="st0" d="M1688.2,73.1h-15.6c-8.8,0-15.9-7.1-15.9-15.9s7.1-15.9,15.9-15.9h15.6c8.8,0,15.9,7.1,15.9,15.9
		S1697,73.1,1688.2,73.1z"/>
</g>
<g>
	<path class="st0" d="M1664.1,140.8h-83.3c-8.8,0-15.9-7.1-15.9-15.9s7.1-15.9,15.9-15.9h83.3c8.8,0,15.9,7.1,15.9,15.9
		C1680,133.7,1672.9,140.8,1664.1,140.8z"/>
</g>
<g>
	<path class="st1" d="M1763.3,208.5h-226.1c-8.8,0-15.9-7.1-15.9-15.9s7.1-15.9,15.9-15.9h226.1c8.8,0,15.9,7.1,15.9,15.9
		S1772.1,208.5,1763.3,208.5z"/>
</g>
<g>
	<path class="st1" d="M1763.3,208.5c-29.7,0-53.8-24.1-53.8-53.8s24.1-53.8,53.8-53.8c29.7,0,53.8,24.1,53.8,53.8
		C1817.1,184.4,1793,208.5,1763.3,208.5z M1763.3,132.6c-12.2,0-22.1,9.9-22.1,22.1s9.9,22.1,22.1,22.1s22.1-9.9,22.1-22.1
		S1775.5,132.6,1763.3,132.6z"/>
</g>
<path class="st2" d="M92.1,416.8h73.3c4.5,0,4.5,3.4,6,7.1l14.1,40.9c0.9,3.5-3,5.9-7.1,5.9h-148c-4.1,0-6.3-3-5.6-7.1l44.6-252.9
	c0.4-3.7,3-6,6.7-6h46.1c4.5,0,6.3,3,6,7.1L92.1,416.8z"/>
<path class="st2" d="M264.8,475.6c-52.1,0-78.5-29.7-71-70.3c6.3-36.1,36.8-52.1,84.4-52.1c11.2,0,22.3,1.1,31.6,3l0.7-6
	c3.3-18.2-1.9-28.3-25.3-28.3c-16.4,0-33.1,3.3-44.3,8.6c-4.1,1.9-7.1,1.1-8.6-3L220.8,297c-1.1-3.3-1.1-6,1.1-7.4
	c17.9-10.8,45.7-17.5,75.9-17.5c50.6,0,76.6,33.5,66.6,89.3l-16.7,94.1c-0.7,3.3-2.2,5.9-5.6,7.1C320.9,470,293.4,475.6,264.8,475.6
	z M271.8,429.1c8.6,0,19-1.5,25.7-3l5.2-32.3c-7.1-1.5-15.6-2.6-23.8-2.6c-18.2,0-27.9,6-29.8,17.1
	C246.5,422.4,255.5,429.1,271.8,429.1z"/>
<path class="st2" d="M860.4,252.1c-15.6,0-24.5,8.6-27.9,26l-1.1,7.4h32.7c4.1,0,6.3,2.6,5.9,7.1l-5.9,34.2c-0.8,3.7-3,6-7.1,6
	h-34.2l-41.5,219.6c-0.8,3.5-3.1,4.5-6.7,5.9l-46.9,21.1c-3.9,1.4-6.7-3-6-7.1l55.7-299.5c8.2-46.1,36.1-69.9,82.2-69.9
	c8.6,0,17.1,0.4,23.4,1.5c4.1,0.7,6,3.3,5.2,7.8l-6.3,35.3c-0.4,4.5-2.6,6-5.9,5.6C871.5,252.4,865.2,252.1,860.4,252.1z"/>
<path class="st2" d="M865.9,470.7c-4.1,0-6.3-3-5.6-7.1l31.2-172.7c0.4-3.7,3-5.6,6.7-5.6h43.1c4.5,0,6.7,2.6,6,6.7l-31.2,172.7
	c-0.7,3.7-3,5.9-7.1,5.9h-43.1L865.9,470.7L865.9,470.7z"/>
<path class="st2" d="M944.6,470.7c-4.5,0-6.7-3-6-7.1l30.5-170c0.7-3,2.2-5.2,5.6-6.7c23.4-8.9,51.3-14.9,75.5-14.9
	c56.2,0,81.5,35.7,72.2,88.5l-18.6,104.1c-0.7,3.7-3,5.9-7.1,5.9h-42.8c-4.1,0-6.3-3-6-7.1l18.6-108.6c4.5-23.4-3.7-34.2-23.4-34.2
	c-8.9,0-18.2,1.9-23.8,4.5l-24.5,139.5c-0.7,4.1-3,5.9-7.1,5.9h-43.1L944.6,470.7L944.6,470.7z"/>
<path class="st2" d="M1212.9,475.6c-53.9,0-83.7-36.8-75.1-86.3l7.8-42.8c7.8-44.3,41.6-74.4,85.9-74.4c13.8,0,26.8,3,36.1,7.8
	l12.3-69.2c0.7-3.7,3-6,6.7-6h43.1c4.5,0,6.7,3,6,7.1L1292.9,455c-0.4,3.3-2.2,5.6-5.6,6.7C1266.1,470.4,1237.5,475.6,1212.9,475.6z
	 M1218.1,426.1c8.9,0,18.6-1.5,24.5-4.1l16.7-96c-5.9-4.1-15.2-6.3-24.5-6.3c-17.8,0-29.4,11.2-33.5,33.8l-7.1,39.8
	C1189.9,416.8,1198,426.1,1218.1,426.1z"/>
<path class="st2" d="M373.2,470.7c-4.5,0-6.7-3-6-7.1l30.5-170c0.7-3,2.2-5.2,5.6-6.7c23.4-8.9,51.3-14.9,75.5-14.9
	c56.2,0,81.5,35.7,72.2,88.5l-18.6,104.1c-0.7,3.7-3,5.9-7.1,5.9h-42.8c-4.1,0-6.3-3-6-7.1l18.6-108.6c4.5-23.4-3.7-34.2-23.4-34.2
	c-8.9,0-18.2,1.9-23.8,4.5l-24.5,139.5c-0.7,4.1-3,5.9-7.1,5.9h-43.1L373.2,470.7L373.2,470.7z"/>
<path class="st2" d="M667.5,272.1c-45,0-83.7,22.7-92.6,71.4l-9.7,53.9c-8.6,48.3,25.3,78.1,74,78.1c29.8,0,53.7-7.6,72.9-19.6
	c2.8-1.7,3.3-5.5,1.2-8c-6.4-7.6-19-21.4-19-21.4c-4.9-4.8-12-6.2-18.4-3.8c-9.5,3.5-19.3,5.6-28.9,5.6c-20.4,0-29.4-9.7-25.7-29.4
	l1.1-5.2h103.4c3.7,0,5.9-1.9,6.7-5.6l6.3-36.1C748.9,297.4,715.1,272.1,667.5,272.1z M685.3,347.3l-1.9,9.3h-54.3l1.9-10
	c3.3-17.5,15.6-27.1,31.6-27.1C681.6,319.4,687.9,332.4,685.3,347.3z"/>
<path class="st2" d="M1426,272.1c-45,0-83.7,22.7-92.6,71.4l-9.7,53.9c-8.6,48.3,25.3,78.1,74,78.1c29.8,0,53.7-7.6,72.9-19.6
	c2.8-1.7,3.3-5.5,1.2-8c-6.4-7.6-19-21.4-19-21.4c-4.9-4.8-12-6.2-18.4-3.8c-9.5,3.5-19.3,5.6-28.9,5.6c-20.4,0-29.4-9.7-25.7-29.4
	l1.1-5.2h103.4c3.7,0,5.9-1.9,6.7-5.6l6.3-36.1C1507.5,297.4,1473.6,272.1,1426,272.1z M1443.9,347.3l-1.9,9.3h-54.3l1.9-10
	c3.3-17.5,15.6-27.1,31.6-27.1C1440.2,319.4,1446.5,332.4,1443.9,347.3z"/>
<path class="st2" d="M1636.9,281.3c2.2-3.1-0.6-5.4-2.9-5.8c-10.8-2.2-20.8-3.3-30.9-3.3c-23.4,0-47.2,5.6-68.8,15.6
	c-3,1.5-4.8,3.7-5.6,7.1l-29.4,168.8c-0.7,4.1,1.5,7.1,6,7.1h43.1c3.7,0,6-2.2,6.7-5.9l24.2-137.2c6.3-2.6,14.5-4.5,24.2-4.5
	c2.6,0,7.5,0.2,9.5-2.5C1620.8,307.3,1629.1,293.7,1636.9,281.3z"/>
</svg>
