<?xml version="1.0" encoding="UTF-8"?>
<svg xmlns="http://www.w3.org/2000/svg" version="1.1" viewBox="0 0 132 36">
  <defs>
    <style>
      .cls-1 {
        fill: #ff753a;
      }

      .cls-2 {
        fill: #192638;
      }
    </style>
  </defs>
  <!-- Generator: Adobe Illustrator 28.6.0, SVG Export Plug-In . SVG Version: 1.2.0 Build 709)  -->
  <g>
    <g id="Layer_1">
      <path class="cls-2" d="M31.9,18c-.4,3.4-3.3,6-6.9,5.9-3.5-.1-6.3-3-6.4-6.5,0-3.8,2.9-6.8,6.7-6.8s1.7.2,2.4.5c.2,0,.5,0,.7-.2l1.4-1.4c.2-.2.1-.5,0-.6-1.4-.7-2.9-1.1-4.6-1.1-5.1,0-9.2,4.3-9.2,9.4,0,5.3,4.2,9.6,9.4,9.6,5.1,0,9.3-4.2,9.4-9.4,0-.6,0-1.2-.1-1.7,0-.2-.3-.2-.4-.1l-2.1,2.1c-.1.1-.2.3-.2.4Z"/>
      <path class="cls-2" d="M15.2,7.9c-.4-.3-.8-.4-1.1-.4s-.8.2-1,.7l-4.9,14.1L2.8,8.2c0-.3-.4-.7-1.1-.7s-.8.1-1.2.4c-.4.3-.6.6-.6,1s0,.3.1.4l6.4,16.5c-.5,2.1-1.3,3.9-2.3,5.3-1,1.4-2.1,2.1-3.2,2.1s-1,.2-1,1.4.5,1.4,1.4,1.4,1.2-.1,1.8-.4c.6-.3,1.1-.5,1.5-.8.4-.3.9-.8,1.3-1.5l1-1.6c.3-.4.6-1.1,1-2,.4-.9.6-1.5.8-1.9l.7-1.9,6.1-16.6c0,0,0-.2,0-.4,0-.4-.2-.7-.6-1Z"/>
      <path class="cls-2" d="M52.3,8c-.3-.2-.6-.3-1-.3s-.7,0-1,.3c-.3.2-.5.5-.5.8v10.6c0,1.3-.5,2.4-1.4,3.4-.9,1-2.1,1.5-3.3,1.5s-2.4-.5-3.3-1.5c-.9-1-1.4-2.1-1.4-3.4v-10.5c0-.3-.2-.6-.5-.8-.3-.2-.6-.4-1-.4s-.8.1-1,.4c-.3.2-.4.5-.4.8v10.6c0,2,.8,3.8,2.3,5.3,1.5,1.5,3.3,2.3,5.4,2.3s3.9-.8,5.4-2.3c1.5-1.5,2.3-3.3,2.3-5.3v-10.6c0-.3-.1-.6-.4-.8Z"/>
      <path class="cls-2" d="M55.3,18.6v-2.7c0-2.5.7-4.5,2.2-6.1,1.5-1.5,3.7-2.3,6.6-2.3s3.5.3,4.8,1c1.3.6,1.9,1.4,1.9,2.3s-.2,1.3-.7,2c-.5.7-1,1-1.7,1s-.7-.2-1.4-.5c-.8-.3-1.5-.5-2.3-.5-2.2,0-3.3,1-3.3,3v2.7c0,2,1.1,3,3.3,3s1.5-.2,2.3-.5c.7-.3,1.2-.5,1.5-.5.8,0,1.4.3,1.9.9.5.6.7,1.3.7,2s-.7,1.7-2,2.4c-1.3.7-2.9,1-4.8,1-3,0-5.2-.8-6.7-2.3-1.5-1.5-2.2-3.5-2.2-6.1Z"/>
      <path class="cls-2" d="M73.3,24.7v-15.1c0-.6.3-1,.9-1.3.6-.3,1.3-.5,2.1-.5s1.4.2,1.9.5c.5.3.8.8.8,1.4v1.5c.4-1,1.1-1.8,2-2.5.9-.7,1.8-1.1,2.7-1.1h1.1c.6,0,1.1.3,1.5.8.4.5.7,1.2.7,1.9s-.2,1.4-.7,1.9c-.4.5-.9.8-1.5.8h-1.1c-1.1,0-2.1.5-3,1.6-.9,1.1-1.3,2.5-1.3,4.2v5.9c0,.5-.3.9-.9,1.3-.6.4-1.3.6-2.2.6s-1.5-.2-2.1-.6c-.6-.4-.9-.8-.9-1.3Z"/>
      <path class="cls-2" d="M89.1,18.7v-9c0-.5.3-.9.9-1.3.6-.4,1.3-.6,2.2-.6s1.5.2,2.1.6c.6.4.9.8.9,1.3v9c0,.8.3,1.4.9,2.1.6.6,1.2.9,2,.9s1.4-.3,2-.9c.6-.6.8-1.3.8-2.1v-9c0-.5.3-.9.9-1.3.6-.4,1.3-.6,2.1-.6s1.6.2,2.2.6c.6.4.9.8.9,1.3v9.1c0,2.2-.9,4.2-2.7,5.8-1.8,1.7-3.9,2.5-6.3,2.5s-4.6-.8-6.3-2.5c-1.8-1.7-2.7-3.6-2.7-5.8Z"/>
      <path class="cls-2" d="M111.2,4.6c-.6-.5-.9-1.2-.9-1.9s.3-1.4.9-1.9C111.8.3,112.5,0,113.4,0s1.6.3,2.2.8c.6.5.9,1.2.9,1.9s-.3,1.4-.9,1.9c-.6.5-1.4.8-2.2.8s-1.7-.3-2.3-.8Z"/>
      <path class="cls-2" d="M110.4,24.7v-15.1c0-.6.3-1,.8-1.3.6-.3,1.3-.5,2.2-.5s1.6.2,2.2.5c.6.3.9.8.9,1.3v15.1c0,.5-.3.9-.9,1.3-.6.4-1.3.6-2.2.6s-1.6-.2-2.2-.6c-.6-.4-.9-.8-.9-1.3Z"/>
      <path class="cls-2" d="M119.9,20V1.8c0-.5.3-1,1-1.3C121.5.2,122.2,0,123,0s1.5.2,2.1.5c.6.3.9.8.9,1.3v6h4.5c.5,0,.8.2,1.1.7.3.5.4,1,.4,1.7s-.1,1.2-.4,1.7c-.3.5-.6.7-1.1.7h-4.5v7.3c0,.5.1.9.4,1.1.2.2.7.3,1.3.3h1.7c.8,0,1.5.3,1.9.8.4.5.7,1.2.7,1.9s-.2,1.4-.7,1.9c-.4.5-1.1.8-1.9.8h-1.7c-5.1,0-7.7-2.2-7.7-6.6Z"/>
      <path class="cls-1" d="M26.1,20.5c-.4.4-1,.4-1.4,0l-3.3-3.3c-.6-.6-.6-1.5,0-2.1.6-.5,1.5-.5,2,0l1.9,1.9,7.5-7.6c.6-.6,1.4-.6,2,0,.6.6.6,1.5,0,2.1l-8.9,9Z"/>
    </g>
  </g>
</svg>