<?xml version="1.0" encoding="UTF-8"?>
<svg xmlns="http://www.w3.org/2000/svg" version="1.1" viewBox="0 0 768 416">
  <defs>
    <style>
      .cls-1 {
        fill: #00e3c2;
      }
    </style>
  </defs>
  <!-- Generator: Adobe Illustrator 28.6.0, SVG Export Plug-In . SVG Version: 1.2.0 Build 709)  -->
  <g>
    <g id="Layer_1">
      <g>
        <path class="cls-1" d="M71.69,409.48v-33.15l-13.51,33.15h-2.63l-13.51-33.15v33.15h-6.26v-41.71h8.94l12.14,29.96,12.13-29.96h8.94v41.71h-6.25Z"/>
        <path class="cls-1" d="M104.7,409.48v-41.71h6.26v41.71h-6.26Z"/>
        <path class="cls-1" d="M136.03,388.65c0-12.82,9.51-21.58,21.39-21.58,8.19,0,13.32,3.94,16.58,8.82l-5.32,2.81c-2.19-3.5-6.32-6.06-11.26-6.06-8.44,0-14.94,6.63-14.94,16.01s6.5,16.01,14.94,16.01c4.94,0,9.07-2.56,11.26-6.07l5.32,2.81c-3.31,4.87-8.38,8.82-16.58,8.82-11.88,0-21.39-8.75-21.39-21.57Z"/>
        <path class="cls-1" d="M227.08,409.48v-18.64h-23.08v18.64h-6.25v-41.71h6.25v17.51h23.08v-17.51h6.26v41.71h-6.26Z"/>
        <path class="cls-1" d="M289.86,409.48l-3.38-8.63h-20.45l-3.38,8.63h-6.88l16.57-41.71h7.82l16.57,41.71h-6.88ZM276.23,373.2l-8.38,22.08h16.82l-8.44-22.08Z"/>
        <path class="cls-1" d="M319.25,409.48v-41.71h28.02v5.5h-21.77v12.2h21.33v5.5h-21.33v13.01h21.77v5.5h-28.02Z"/>
        <path class="cls-1" d="M372.59,409.48v-41.71h6.25v36.21h18.95v5.5h-25.2Z"/>
        <path class="cls-1" d="M487.77,409.48l-8.69-32.21-8.63,32.21h-6.7l-11.94-41.71h7l8.63,33.46,9.13-33.46h5.06l9.07,33.46,8.63-33.46h7l-11.88,41.71h-6.7Z"/>
        <path class="cls-1" d="M556.06,409.48l-3.38-8.63h-20.45l-3.38,8.63h-6.88l16.58-41.71h7.82l16.57,41.71h-6.88ZM542.43,373.2l-8.38,22.08h16.82l-8.44-22.08Z"/>
        <path class="cls-1" d="M609.46,409.48l-9.95-16.07h-7.82v16.07h-6.25v-41.71h17.57c7.94,0,13.38,5.13,13.38,12.82s-5.06,11.51-10.38,12.2l10.69,16.7h-7.25ZM602.21,373.26h-10.51v14.63h10.51c4.5,0,7.76-2.94,7.76-7.32s-3.25-7.32-7.76-7.32Z"/>
        <path class="cls-1" d="M661.49,367.07c7.82,0,13.01,3.56,16.51,8.26l-5.06,2.94c-2.38-3.19-6.57-5.62-11.45-5.62-8.69,0-15.19,6.63-15.19,16.01s6.5,16.07,15.19,16.07c4.63,0,8.57-2.25,10.57-4.13v-7.51h-13.38v-5.5h19.64v15.32c-4,4.44-9.76,7.38-16.83,7.38-11.95,0-21.64-8.63-21.64-21.63s9.69-21.58,21.64-21.58Z"/>
        <path class="cls-1" d="M727.84,409.48l-9.95-16.07h-7.82v16.07h-6.25v-41.71h17.57c7.94,0,13.38,5.13,13.38,12.82s-5.06,11.51-10.38,12.2l10.69,16.7h-7.25ZM720.58,373.26h-10.51v14.63h10.51c4.5,0,7.76-2.94,7.76-7.32s-3.25-7.32-7.76-7.32Z"/>
      </g>
      <g>
        <path class="cls-1" d="M549.41,75.27l-49.98,138.14-21.54-54.72-36.62-93.04c-14.64-37.54.4-55.71,20.97-58.13v-.81h-126.22v.81c15.43,2.82,24.53,23.82,35.21,50.06l98.12,238.2v.4h1.98l29.23-79.88,50.62-138.32-1.45-3.59-.32.89Z"/>
        <path class="cls-1" d="M689.34,6.71v.81c26.9,6.46,34.62,28.66,21.96,67.42,12.26-37.54,29.08-60.96,45.7-67.42v-.81h-67.66Z"/>
        <path class="cls-1" d="M612.58,65.66c-12.27-32.7-.79-54.91,20.57-58.13v-.81h-125.43v.81c15.43,2.82,24.93,24.62,35.21,50.06l8.23,20.4,15.17,37.59,71.95,180.21v.4h1.98l27.64-84.62-1.13-2.99-54.21-142.91Z"/>
        <path class="cls-1" d="M317.06,244.74l-14.24-197.2c-1.19-22.45,7.91-36.74,20.97-40.01v-.82h-66.94,0s-4.65,0-4.65,0h-2.8l-75.97,203.73,1.54,3.87,60.97-163.91h0s.71,8.07.71,8.07h0s16.31,186.27,16.31,186.27c2.77,32.25-7.91,46.95-26.51,50.63v.82h123.84v-.82c-20.18-4.49-31.26-22.05-33.23-50.63Z"/>
        <path class="cls-1" d="M92.32,6.71H12v.82c7,2.04,13.91,6.2,19.49,12.48,6.22,6.99,14.94,32.43,14.94,32.43l67.74,168.73,28.8,71.74h2.77l29.24-78.6-33.3-83.64L92.32,6.71Z"/>
      </g>
    </g>
  </g>
</svg>