<?xml version="1.0" encoding="UTF-8"?>
<svg id="Layer_1" data-name="Layer 1" xmlns="http://www.w3.org/2000/svg" version="1.1" viewBox="0 0 200 200">
  <defs>
    <style>
      .cls-1 {
        fill: #000;
        stroke-width: 0px;
      }
    </style>
  </defs>
  <g>
    <path class="cls-1" d="M158.25,113.72l-14.94-39.62c-6.71-17.64-5.63-26.95,5.9-30.28v-1.19h-68.66v1.19c9.92,3.81,13.95,12.64,20.12,27.18l6.97,16.22,33.53,79.41h1.34l19.24-43.63-3.5-9.27h0Z"/>
    <path class="cls-1" d="M73.57,43.82v-1.19H1.96v1.19c10.46,3.81,16.63,12.64,23.6,27.18l45.6,95.63h1.34l19.31-43.65-23.61-48.88c-8.05-17.41-5.63-26.95,5.37-30.28Z"/>
  </g>
  <ellipse class="cls-1" cx="182.39" cy="47.3" rx="15.66" ry="13.92"/>
  <path class="cls-1" d="M195.76,54.51s-6.3,10.53-16.72,33.67c0,0,7.61-20.79-5.02-29.13l21.73-4.54Z"/>
</svg>