<?xml version="1.0" encoding="UTF-8"?>
<svg id="Layer_1" data-name="Layer 1" xmlns="http://www.w3.org/2000/svg" version="1.1" viewBox="0 0 200 200">
  <defs>
    <style>
      .cls-1 {
        fill: #000;
        stroke-width: 0px;
      }
    </style>
  </defs>
  <g>
    <path class="cls-1" d="M158.2,113.7l-14.9-39.6c-6.7-17.6-5.6-27,5.9-30.3v-1.2h-68.7v1.2c9.9,3.8,13.9,12.6,20.1,27.2l7,16.2,33.5,79.4h1.3l19.2-43.6-3.5-9.3h0Z"/>
    <path class="cls-1" d="M73.6,43.8v-1.2H2v1.2c10.5,3.8,16.6,12.6,23.6,27.2l45.6,95.6h1.3l19.3-43.7-23.6-48.9c-8-17.4-5.6-27,5.4-30.3Z"/>
  </g>
  <ellipse class="cls-1" cx="182.4" cy="47.3" rx="15.7" ry="13.9"/>
  <path class="cls-1" d="M195.8,54.5s-6.3,10.5-16.7,33.7c0,0,7.6-20.8-5-29.1l21.7-4.5h0Z"/>
</svg>