<?xml version="1.0" encoding="utf-8"?>
<!-- Generator: Adobe Illustrator 28.2.0, SVG Export Plug-In . SVG Version: 6.00 Build 0)  -->
<svg version="1.1" id="Layer_1" xmlns:serif="http://www.serif.com/"
	 xmlns="http://www.w3.org/2000/svg" xmlns:xlink="http://www.w3.org/1999/xlink" x="0px" y="0px" viewBox="0 0 1080 1080"
	 style="enable-background:new 0 0 1080 1080;" xml:space="preserve">
<style type="text/css">
	.st0{fill-rule:evenodd;clip-rule:evenodd;}
</style>
<g id="Layer_1_00000103262402073159148790000016040018657541560453_">
	<path class="st0" d="M97.6,825.8c-4.3-5.2-3.6-12.4-2.8-20.6c0.3-2.8,0.6-5.7,0.6-8.6c0.7-35.8-0.6-77-1.9-116.9
		c-0.5-16.6-1-32.3-1.4-47.2l-0.1-4.1h-4c-22.3,0-33.7-16.4-42.9-29.6l-4.6-6.6l-2.7,7.6c-2.1,5.9-2,13.8-1.9,22.1
		c0.1,9,0.3,19.2-3.1,22.7c-0.9,0.9-2.1,1.3-3.8,1.3c-1.5,0-3.4-0.3-5.5-1c-3.7-6.7-2.7-15.8-1.6-25.4c0.5-4.9,1.1-9.9,1.1-14.8
		c-0.3-26.8-5.5-56-9.7-79.4c-1.3-7.1-2.5-13.7-3.4-19.6c1.7-0.5,3.4-0.7,4.9-0.7c14.2,0,20.7,21.9,27.6,45
		c8.1,27.5,16.6,56,40.4,58.6l4.6,0.5l0.1-4.6c0.5-25.2-0.1-52.2-0.8-80.7c-1.6-68.6-3.1-139.4,9.7-198.1
		c4.2-19.1,20.2-60.9,44.3-69.8c6.4-2.1,17.3-6.1-5.3,13.9c-2.7,2.4-3.9,5.6-6.3,8.3c-11.2,13-18.2,39.5-20,47.4
		c-15.3,64.1-11.9,150.1-9.2,219.2v0.5c0.6,14.9,1.1,28.9,1.5,42l0.2,7.2l6.2-3.7c24.5-14.7,45-53.2,57.8-108.3
		c8.8-37.8,9.3-152.7-0.5-203c14,37.7,17.1,160.7,15.8,177.6c-5.5,73-34.1,132.1-76.4,158l-2.2,1.4l0.3,2.6
		c2.8,32.1,4.1,68.4,5.4,106.9c0.5,15.5,1.1,33,1.8,50.2l0.2,4.4l4.4-0.4c1.4,0,3.8,1.1,6.3,4.2c3.1,3.9,4.5,8.5,4.1,10.6
		c-0.6,2-1.1,4.2-1.6,6.4c-4,16-6.2,24.8-23.8,24.9h-0.2C98.9,825.8,98,825.8,97.6,825.8z"/>
	<path class="st0" d="M287.3,680.2c-18.4-2.3-21.3-18.1-24.4-34.7c-0.6-3.1-1.2-6.2-1.8-9.3l-0.2-0.8l-0.6-0.5
		c-3.2-2.4-6.6-3.6-10.6-3.6c-3.9-0.1-7.7,1-11.3,2c-3.4,1-6.7,1.9-9.8,1.8c-3.2,0-5.9-1.1-8.4-3.4c0.2-1.6,0.1-3.3-0.1-5.1
		c-0.3-3.5-0.6-6.7,1.5-9.2c2.7-1.8,6.1-2.7,10.3-2.6c4,0.1,8.6,0.9,14.6,2.7l0.5,0.2l0.6-0.1c1.8-0.4,3.1-1.2,4.1-1.7
		c0.8-0.4,1.3-0.7,1.6-0.7c0.4,0,1.1,0.3,2.6,1.5l3.2,2.7l0.3-4.2c0.4-6.4,0.4-20,0.4-38.7c0-67.8,0.1-208.2,21.2-226.1
		c4.4,0.1,8.3,0.7,12.4,1.8c9.3,15.1,17,76.8,17.6,141.7c0.7,74.4-7.8,127.2-22.3,138.3c-0.8,0.2-1.5,0.3-2.3,0.3
		c-0.9,0-1.8-0.2-2.7-0.3c-1-0.2-2.1-0.4-3.2-0.4c-1.3,0-2.6,0.2-3.8,0.6l-1.6,0.5l0.2,1.7c1.5,14.3,4.2,30.1,16.5,38
		c0.2,3.2-1.1,4.4-2.8,6C288.2,679.2,287.7,679.7,287.3,680.2z M286.4,359.1c-19.4,30.4-15,220.5-13.3,254.2l0.2,3.4l3-1.6
		c0.8-0.5,2.5-0.4,3-0.4c0.8,0,1.7,0.1,2.5,0.1c0.9,0.1,1.8,0.1,2.7,0.1c1.7,0,3.8-0.1,5.4-1.2l0.3-0.2l0.2-0.3
		c11.3-16.2,15.2-79.7,15-129.1c-0.1-49.4-4.3-111.8-15.7-125.2l-1.8-2.2L286.4,359.1z"/>
	<path class="st0" d="M837.5,639.2c-6.1,0-10.1-2.5-12.2-7.7l-1.6-3.9l-3.9,1.6c-3.5,1.5-7.4,2.3-11.2,2.3c-7.2,0-13.7-2.9-15.8-7.1
		c-1.3-2.7-0.8-5.8,1.4-9.4c2.7,0.5,5.4,0.7,8.2,0.7c6.7,0,12.7-1.3,18.6-2.6c4.9-1,9.5-2.1,13.7-2.1c5.8,0,10.1,1.8,14.3,6.2
		l3.1,3.3l3-3.4c2.3-2.6,5.6-3.9,10-3.9c5.7,0,13,2.3,19.7,6.2l2.2,1.3l2.2-1.4c12-7.6,28.5-11.8,46.5-11.8c14.1,0,35.5,5.1,57.7,14
		c21,8.4,77.8,15.4,80.4,16.1c-4.6-0.7-54.5,0-99.1-17.8c-9-3.6-27.3-6.8-46.1-3.7c-21.1,3.5-25.4,3.2-42.1,20.1
		c-0.6-0.3-8.7-1.7-8.7-1.7c-3.7-1.7-7.5-3.5-11.6-5.1l-2.2-0.9l-1.9,1.4C856.1,634.3,845.9,639.2,837.5,639.2z"/>
	<path d="M467.6,678.5c-11.2,0-23.6-1.1-35.1-3.2h-0.2c-24.7-4.5-66.6-17.4-70.7-53.5c-2.3-20.2,7-44.4,27.7-72l0.2-0.3l0.1-0.1
		c7.6-13,51.6-67.1,127-93.8c12.9-4.6,90.9-42.5,142.5-43.6c3.8-0.1,7.3,0.3,10.4,0.8c10.9,2,17.9,7.5,20.7,16.5l0.1,0.4v0.4
		c0.3,7.7-2.4,15.9-8.1,24.4c-28.8,42.7-135.2,87.8-176,87.8c-2.6,0-4.9-0.2-6.8-0.5c-3.4-0.6-5.9-1.7-7.5-3.4l-0.1-0.1l-0.2-0.1
		c-0.6-0.5-1.4-2.8,0.6-7.1c2.8-6,18.1-11.9,28.2-12.2c2-0.1,3.8-0.1,5.5-0.3c0.5-0.1,1-0.1,1.5-0.1c3.8,0,5.3,1.7,7.1,3.6
		c1.6,1.8,3.7,4.1,7.6,4.1c1.6,0,3.5-0.4,5.6-1.2c1.5-0.6,3.3-1.2,5.3-1.8c6.2-2.1,14.7-5.1,27.8-10.5c43.8-18.2,106-59.7,98.9-77.7
		l-0.3-0.8l-1.4-2c-3.3-3.1-6.1-4.5-11.3-5.4c-4.5-0.8-10.7-1.8-15.7-1c-35.7,5.2-70.7,17.9-101.2,30.3c-6.8,2.7-13,5.3-19,7.6
		c-59.6,23-115.9,50.1-150.5,128.4l-0.1,0.1v0.1c-3.9,13.5-4.1,26.8-0.7,37.6c5.2,16.2,18.9,21.1,39.7,28.6
		c21.9,7.8,48,11.8,77.8,11.8c23.7,0,41.6-2.7,43.9-3l21.8,1.3l-31.7,6l-18.9,2.6c-13.3,0.5-26.6,1-39.9,1.4
		C470.8,678.5,469.2,678.5,467.6,678.5z"/>
	<path class="st0" d="M772.3,818.5c-4.3-5.2-3.6-12.4-2.8-20.6c0.3-2.9,0.6-5.7,0.6-8.6c0.7-35.8-0.6-77.1-1.9-117
		c-0.1-4.7,0-19.1,0.1-33c0.1-11.6,0.2-22.6,0.1-28.1h12.1c0.6,13.3,0.9,37,1.1,59.9c0.2,18.6,0.4,36.1,0.7,47.1
		c0.6,17.9,1.2,34.1,1.8,50.2l0.2,4.4l4.4-0.4h0.2c1.2,0,3.6,1.1,6.1,4.2c3.1,3.9,4.5,8.5,4.1,10.6c-0.6,2-1.1,4.2-1.6,6.4
		c-4,16-6.2,24.8-23.8,24.9h-0.1C773.5,818.6,772.7,818.5,772.3,818.5z"/>
	<path class="st0" d="M721.4,645.2c4.9-9.8-10-13.4-13.3-17.5l-8-2.2l-1.8-0.2c-1.6-0.1-3.5-0.2-6.4-0.2c-1.2,0-4.7,0-4.7,0
		c-1,0-2.1,0-3.3,0c-11.8,0-25.4-0.9-26.3-8l-0.8-5.7l-5.2,2.5c-6.6,3.1-11.8,7.9-16.8,12.6c-7.7,7.1-14.3,13.2-24.7,13.2
		c-2.1,0-4.4-0.3-6.8-0.8l-0.4-0.3c-3.3-4.7-6.1-10.9-4.7-20.7l-4.6-2.8c-0.8,0-1.6,0-2.4,0c-14.8,0-29.5,7.3-43.5,10.2
		c-13.7,2.9-22.1,3.8-36.2,3.8c-11.8,0-21.9-6.2-32.1-10.5l-0.8-0.3h-0.9c-6.5,0.1-18,9.2-22.6,11.7c-3.9,2.1-7.6,4.2-11.5,4.2
		c-1.4,0-2.8-0.3-4.2-0.8c-1.8-0.6-4-2-4.3-4.7c-0.3-2.8,1.4-5.9,4.3-7.8c0,0,0.5-0.3,2.5-0.3c1,0,2.1,0.1,3.2,0.1
		c1.2,0.1,2.5,0.1,3.6,0.1c1.8,0,3.2-0.2,4.5-0.5c6.5-1.8,10.9-5.3,14.6-8.2c2.2-1.8,4.2-3.4,6-3.9c7.3,3.1,14.6,3.9,21.6,4.6
		c7.2,0.8,14,1.5,19.6,4.7l3.5,2l2.1-3.3c4-6.3,10.9-9.5,20.5-9.5c9.3,0,18.4,3,22.9,4.7l2,0.8l1.8-1.1c3.6-2.2,8.1-3.7,12.9-5.2
		c4.5-1.5,9.1-3,13.3-5.3c7.8,6,15,7.4,19.7,7.4c-0.8,2.6-1.7,5.9-1.1,10.5l0.6,4.7l4.6-1.2c11.1-2.8,18.2-9.6,25-16.2
		c5.6-5.4,10.8-10.5,18.1-13.2c1.7,1.3,2.6,3.8,3.7,6.9c1.4,3.8,2.9,8,6.7,10.8l1.6,1.2l1.9-0.4c3.8-0.9,8.1-1.4,12.7-1.4
		c20.5,0,41.8,8.9,48.4,20.3l1.6,2.8l3.1-0.9c7.3-2.1,12-6.9,16.1-11.2c5-5.2,9.4-9.6,17.9-9.6c1.6,0,3.4,0.2,5.2,0.5
		c0.3,2,0,3.1-0.3,5.1c-0.2,1.2-0.5,2.6-0.7,4.5c-0.4,0.5-0.8,1.2-1.4,2c-5,7.6-8.1,24.1-46.5,30.4
		C731.2,653.6,716.5,655,721.4,645.2z"/>
	<path class="st0" d="M609.1,612.9c-4.1-0.8-8.7-1.8-13.6-3c-0.7-2.8-1.4-5.8-2.1-8.6h0.1l0.1-2.8c0.1-5.1,0.1-10.4,0-16
		c-0.3-21.5-0.7-45.6,12-59.6c1.7,0,3.2-2.7,4.8-2.8c1.7-0.2,1.7-0.2,3.6-0.2c1.2,0,2.3,0.1,3.4,0.2c16,9.6,19.6,52.1,14,75.5
		c-2.5,10.2-10.2,16.9-19.6,17.1h-2.6v0.2H609.1z M614.7,531.1c-12.6,11.6-11.3,40.3-8.8,64l0.1,1.3l1.2,0.5
		c0.7,0.3,1.6,0.7,2.6,1.3c2.1,1.1,4,2,5.5,2.2l1.3,0.2l0.7-1.1c10.6-16.5,15-54.4,0.2-68.3l-1.4-1.3L614.7,531.1z"/>
	<path d="M188.2,629.9c11.4,0.1,21.2-7.7,24.8-20.1c8.6-29.3,8.6-82.2-10.8-95.7c-4.9-7.5-14.3,0-16.2,0
		c-16.5,17.4-17.5,47.4-18.4,76.5c-0.3,9-0.5,17.4-1.3,25.4l-0.3,2.9l-2.7-1.2c-1.5-0.7-2.9-1-4.1-1c-2.1,0-3.8,0.8-5.7,1.8
		c-2,1-4.2,2.2-7.2,2.5l-1.9,0.3l-0.4-1.9c-1.4-6.9-4.1-10.4-7.9-10.5c-5.2-0.1-11.7,5.9-15.1,11.5l-2.5,4.1l-0.1-0.3
		c0.4,2.6-6.7,7.8-6.8,11.4c0.2,0.1,0.4,0.2,0.6,0.3c2.2-0.6,11.3-3.9,13.1-5.1c2.1-1.4,4.2-2.9,7.2-3.6l1.2-0.3l0.8,0.9
		c2.7,3,6.1,4.3,11.3,4.4c2.1,0,4.4-0.1,6.6-0.3c2.3-0.2,9.3-3.3,11.7-3.2c4.7,0.1,7.1,6.4,7.1,6.4l1.2,4.1
		c5.1,18.1,9.9,35.2,31.5,37.9c4.8-3.4,6.6-9.3,4.8-15.8c-0.3-0.1-0.6-0.1-0.9-0.1c-1.3,0-2.1,0.5-3.2,1.2c-1.3,0.8-3,1.8-5.5,1.8
		c-0.5,0-1,0-1.6-0.1l-0.8-0.1l-0.5-0.6c-7.4-8.9-12-19-14-31.1l-0.5-2.8l2.9,0.4C185.8,629.8,187,629.9,188.2,629.9z M181.3,612.3
		h-2l-0.1-2c-1.4-24.2-4.4-74.6,18.5-90.2l1.3-0.9l1.2,1c22.1,18.6,14.2,73.9-3.1,96.7l-0.4,0.5l-0.6,0.2c-0.5,0.2-1.1,0.3-1.7,0.3
		c-2.8,0-6.1-2-9.1-3.6C184,613.5,182,612.3,181.3,612.3z"/>
</g>
</svg>
