<?xml version="1.0" encoding="UTF-8"?>
<svg xmlns="http://www.w3.org/2000/svg" version="1.1" viewBox="0 0 18.5 18.5">
  <!-- Generator: Adobe Illustrator 28.7.1, SVG Export Plug-In . SVG Version: 1.2.0 Build 142)  -->
  <g>
    <g id="mdi-file-pdf-box">
      <path d="M16.4,0H2C.9,0,0,1,0,2.1v14.4c0,1.1.9,2.1,2.1,2.1h14.4c1.1,0,2.1-.9,2.1-2.1V2.1c0-1.1-.9-2.1-2.1-2.1M6.7,8.8c0,.8-.7,1.5-1.5,1.5h-1v2.1h-1.5v-6.2h2.6c.8,0,1.5.7,1.5,1.5v1M11.8,10.8c0,.8-.7,1.5-1.5,1.5h-2.6v-6.2h2.6c.8,0,1.5.7,1.5,1.5v3.1M15.9,7.8h-1.5v1h1.5v1.5h-1.5v2.1h-1.5v-6.2h3.1v1.5M9.2,7.8h1v3.1h-1v-3.1M4.1,7.8h1v1h-1v-1Z"/>
    </g>
  </g>
</svg>